# xmcd
#
# Track frame offsets:
#	150
#	13552
#	28674
#	43610
#	59117
#	73066
#	85560
#	98477
#	119073
#	135723
#
# Disc length: 2041 seconds
# Revision: 2
# Processed by: cddbd v1.5.2PL0 Copyright (c) Steve Scherf et al.
# Submitted via: dBpowerAMP V12.0
#
DISCID=8607f70a
DTITLE=The Dickel Brothers - The Recordings of the Dickel Brothers, Vol. 2
DYEAR=2000
DGENRE=Country
TTITLE0=I'm Getting Ready to Go
TTITLE1=Rambling Boy
TTITLE2=Milwaukee Blues
TTITLE3=The Highway Man
TTITLE4=Cascade Hollow
TTITLE5=Little Lulie
TTITLE6=A Lonesome Day Today
TTITLE7=I Get My Whiskey from Rockingham
TTITLE8=I Don't Love Nobody, Nobody Loves Me
TTITLE9=Dig My Grave
EXTD=
EXTT0=
EXTT1=
EXTT2=
EXTT3=
EXTT4=
EXTT5=
EXTT6=
EXTT7=
EXTT8=
EXTT9=
PLAYORDER=
